# xmcd
#
# Track frame offsets:
#	150
#	36145
#	68289
#	101168
#	130206
#	150581
#	175794
#	199163
#	218972
#
# Disc length: 3118 seconds
#
# Revision: 1
# Processed by: cddbd v1.5.2PL0 Copyright (c) Steve Scherf et al.
# Submitted via: audiograbber 1.83.01
#
DISCID=760c2c09
DTITLE=Freightrain - Outside Ourselves
DYEAR=2017
DGENRE=Blues
TTITLE0=Elijah
TTITLE1=Better Man
TTITLE2=Outside Ourselves
TTITLE3=Wake Up
TTITLE4=Don't Stop the Music
TTITLE5=You Found Me
TTITLE6=Dark Season Blues
TTITLE7=I Still Believe
TTITLE8=Elijah (Reprise)
EXTD=
EXTT0=
EXTT1=
EXTT2=
EXTT3=
EXTT4=
EXTT5=
EXTT6=
EXTT7=
EXTT8=
PLAYORDER=
